{
  "accessors": [
    {
      "bufferView": 2,
      "componentType": 5126,
      "count": 5279,
      "max": [
        1.6326950788497925,
        0.18915311992168427,
        -0.9849042892456055
      ],
      "min": [
        -2.2770941257476807,
        0.001543087768368423,
        -2.4664907455444336
      ],
      "type": "VEC3"
    },
    {
      "bufferView": 2,
      "byteOffset": 63348,
      "componentType": 5126,
      "count": 5279,
      "max": [
        0.9953317642211914,
        0.9997952580451965,
        0.9968166947364807
      ],
      "min": [
        -0.6748596429824829,
        -0.9997398257255554,
        -0.9999971985816956
      ],
      "type": "VEC3"
    },
    {
      "bufferView": 1,
      "componentType": 5126,
      "count": 5279,
      "max": [
        1.000342607498169,
        1.000000238418579
      ],
      "min": [
        0.0,
        0.0
      ],
      "type": "VEC2"
    },
    {
      "bufferView": 0,
      "componentType": 5125,
      "count": 19392,
      "type": "SCALAR"
    },
    {
      "bufferView": 2,
      "byteOffset": 126696,
      "componentType": 5126,
      "count": 1878,
      "max": [
        0.8652675151824951,
        0.20453056693077087,
        -1.5203834772109985
      ],
      "min": [
        -2.3384008407592773,
        0.0015430878847837448,
        -2.4120795726776123
      ],
      "type": "VEC3"
    },
    {
      "bufferView": 2,
      "byteOffset": 149232,
      "componentType": 5126,
      "count": 1878,
      "max": [
        0.37781569361686707,
        0.9994115829467773,
        0.9988996982574463
      ],
      "min": [
        -0.3754463791847229,
        -0.9995425939559937,
        -0.9985948204994202
      ],
      "type": "VEC3"
    },
    {
      "bufferView": 1,
      "byteOffset": 42232,
      "componentType": 5126,
      "count": 1878,
      "max": [
        0.7887477874755859,
        0.6212120652198792
      ],
      "min": [
        0.0,
        0.0
      ],
      "type": "VEC2"
    },
    {
      "bufferView": 0,
      "byteOffset": 77568,
      "componentType": 5125,
      "count": 7488,
      "type": "SCALAR"
    },
    {
      "bufferView": 2,
      "byteOffset": 171768,
      "componentType": 5126,
      "count": 2887,
      "max": [
        0.5127282738685608,
        0.013496143743395805,
        0.29833465814590454
      ],
      "min": [
        -1.0407092571258545,
        -0.04937491565942764,
        -0.46682751178741455
      ],
      "type": "VEC3"
    },
    {
      "bufferView": 2,
      "byteOffset": 206412,
      "componentType": 5126,
      "count": 2887,
      "max": [
        0.9794231057167053,
        0.9999819397926331,
        0.9933168292045593
      ],
      "min": [
        -0.9484550356864929,
        -0.9999880194664001,
        -0.927626371383667
      ],
      "type": "VEC3"
    },
    {
      "bufferView": 1,
      "byteOffset": 57256,
      "componentType": 5126,
      "count": 2887,
      "max": [
        0.0,
        0.0
      ],
      "min": [
        0.0,
        0.0
      ],
      "type": "VEC2"
    },
    {
      "bufferView": 0,
      "byteOffset": 107520,
      "componentType": 5125,
      "count": 15096,
      "type": "SCALAR"
    },
    {
      "bufferView": 2,
      "byteOffset": 241056,
      "componentType": 5126,
      "count": 1396,
      "max": [
        0.5068851709365845,
        0.011340170167386532,
        0.2897462546825409
      ],
      "min": [
        -1.0469883680343628,
        -0.05005420371890068,
        -0.4595484137535095
      ],
      "type": "VEC3"
    },
    {
      "bufferView": 2,
      "byteOffset": 257808,
      "componentType": 5126,
      "count": 1396,
      "max": [
        0.9760230779647827,
        0.9998647570610046,
        0.9993849396705627
      ],
      "min": [
        -0.9429572820663452,
        -0.9998703002929688,
        -0.8969013690948486
      ],
      "type": "VEC3"
    },
    {
      "bufferView": 1,
      "byteOffset": 80352,
      "componentType": 5126,
      "count": 1396,
      "max": [
        0.8703424334526062,
        0.5000001192092896
      ],
      "min": [
        0.0,
        0.0
      ],
      "type": "VEC2"
    },
    {
      "bufferView": 0,
      "byteOffset": 167904,
      "componentType": 5125,
      "count": 6672,
      "type": "SCALAR"
    },
    {
      "bufferView": 2,
      "byteOffset": 274560,
      "componentType": 5126,
      "count": 785,
      "max": [
        18.0119571685791,
        54.870052337646484,
        -0.23390446603298187
      ],
      "min": [
        -31.816312789916992,
        -35.66690444946289,
        -1.618825078010559
      ],
      "type": "VEC3"
    },
    {
      "bufferView": 2,
      "byteOffset": 283980,
      "componentType": 5126,
      "count": 785,
      "max": [
        0.9944922924041748,
        0.999856173992157,
        1.0
      ],
      "min": [
        -0.9120555520057678,
        -0.9991093277931213,
        -1.0
      ],
      "type": "VEC3"
    },
    {
      "bufferView": 1,
      "byteOffset": 91520,
      "componentType": 5126,
      "count": 785,
      "max": [
        0.8048691153526306,
        0.15367913246154785
      ],
      "min": [
        0.0,
        0.0
      ],
      "type": "VEC2"
    },
    {
      "bufferView": 0,
      "byteOffset": 194592,
      "componentType": 5125,
      "count": 3450,
      "type": "SCALAR"
    },
    {
      "bufferView": 2,
      "byteOffset": 293400,
      "componentType": 5126,
      "count": 31752,
      "max": [
        0.32139280438423157,
        -0.26490724086761475,
        0.21779635548591614
      ],
      "min": [
        -0.18990930914878845,
        -0.46342355012893677,
        -0.3008691966533661
      ],
      "type": "VEC3"
    },
    {
      "bufferView": 2,
      "byteOffset": 674424,
      "componentType": 5126,
      "count": 31752,
      "max": [
        0.9999294281005859,
        0.999977707862854,
        0.999923825263977
      ],
      "min": [
        -0.999913215637207,
        -0.999996542930603,
        -0.999884843826294
      ],
      "type": "VEC3"
    },
    {
      "bufferView": 1,
      "byteOffset": 97800,
      "componentType": 5126,
      "count": 31752,
      "max": [
        1.0,
        1.0
      ],
      "min": [
        0.0,
        0.0
      ],
      "type": "VEC2"
    },
    {
      "bufferView": 0,
      "byteOffset": 208392,
      "componentType": 5125,
      "count": 185760,
      "type": "SCALAR"
    },
    {
      "bufferView": 2,
      "byteOffset": 1055448,
      "componentType": 5126,
      "count": 37872,
      "max": [
        -0.32420098781585693,
        0.14784976840019226,
        0.4423612654209137
      ],
      "min": [
        -0.6200676560401917,
        -0.055525846779346466,
        0.07521909475326538
      ],
      "type": "VEC3"
    },
    {
      "bufferView": 2,
      "byteOffset": 1509912,
      "componentType": 5126,
      "count": 37872,
      "max": [
        0.9999374151229858,
        0.9999570846557617,
        0.999941349029541
      ],
      "min": [
        -0.999929666519165,
        -0.9999445676803589,
        -0.9999918937683105
      ],
      "type": "VEC3"
    },
    {
      "bufferView": 1,
      "byteOffset": 351816,
      "componentType": 5126,
      "count": 37872,
      "max": [
        1.0,
        1.0
      ],
      "min": [
        0.0,
        0.0
      ],
      "type": "VEC2"
    },
    {
      "bufferView": 0,
      "byteOffset": 951432,
      "componentType": 5125,
      "count": 217692,
      "type": "SCALAR"
    }
  ],
  "asset": {
    "extras": {
      "author": "Amirul.Khoiri (https://sketchfab.com/Amirul.Khoiri)",
      "license": "CC-BY-4.0 (http://creativecommons.org/licenses/by/4.0/)",
      "source": "https://sketchfab.com/3d-models/death-scythe-ab990bf2ded84cb7aae2e37cfd2ebaa9",
      "title": "death-scythe"
    },
    "generator": "Sketchfab-12.68.0",
    "version": "2.0"
  },
  "bufferViews": [
    {
      "buffer": 0,
      "byteLength": 1822200,
      "name": "floatBufferViews",
      "target": 34963
    },
    {
      "buffer": 0,
      "byteLength": 654792,
      "byteOffset": 1822200,
      "byteStride": 8,
      "name": "floatBufferViews",
      "target": 34962
    },
    {
      "buffer": 0,
      "byteLength": 1964376,
      "byteOffset": 2476992,
      "byteStride": 12,
      "name": "floatBufferViews",
      "target": 34962
    }
  ],
  "buffers": [
    {
      "byteLength": 4441368,
      "uri": "scene.bin"
    }
  ],
  "images": [
    {
      "uri": "textures/Material.005_baseColor.png"
    }
  ],
  "materials": [
    {
      "doubleSided": true,
      "name": "Material.001",
      "pbrMetallicRoughness": {
        "baseColorFactor": [
          0.0,
          0.0,
          0.0,
          1.0
        ],
        "metallicFactor": 0.319444,
        "roughnessFactor": 0.166667
      }
    },
    {
      "doubleSided": true,
      "name": "Material.004",
      "pbrMetallicRoughness": {
        "baseColorFactor": [
          0.8,
          0.8,
          0.8,
          1.0
        ],
        "metallicFactor": 0.833333,
        "roughnessFactor": 0.0
      }
    },
    {
      "doubleSided": true,
      "name": "Material.002",
      "pbrMetallicRoughness": {
        "baseColorFactor": [
          0.8,
          0.353139,
          0.040448,
          1.0
        ],
        "metallicFactor": 0.583333,
        "roughnessFactor": 0.0
      }
    },
    {
      "doubleSided": true,
      "name": "Material.005",
      "pbrMetallicRoughness": {
        "baseColorTexture": {
          "index": 0
        },
        "metallicFactor": 0.0,
        "roughnessFactor": 0.0
      }
    },
    {
      "doubleSided": true,
      "emissiveFactor": [
        1.0,
        0.0104611,
        0.00410279
      ],
      "name": "Material.003"
    }
  ],
  "meshes": [
    {
      "name": "Object_0",
      "primitives": [
        {
          "attributes": {
            "NORMAL": 1,
            "POSITION": 0,
            "TEXCOORD_0": 2
          },
          "indices": 3,
          "material": 0,
          "mode": 4
        }
      ]
    },
    {
      "name": "Object_1",
      "primitives": [
        {
          "attributes": {
            "NORMAL": 5,
            "POSITION": 4,
            "TEXCOORD_0": 6
          },
          "indices": 7,
          "material": 1,
          "mode": 4
        }
      ]
    },
    {
      "name": "Object_2",
      "primitives": [
        {
          "attributes": {
            "NORMAL": 9,
            "POSITION": 8,
            "TEXCOORD_0": 10
          },
          "indices": 11,
          "material": 2,
          "mode": 4
        }
      ]
    },
    {
      "name": "Object_3",
      "primitives": [
        {
          "attributes": {
            "NORMAL": 13,
            "POSITION": 12,
            "TEXCOORD_0": 14
          },
          "indices": 15,
          "material": 2,
          "mode": 4
        }
      ]
    },
    {
      "name": "Object_4",
      "primitives": [
        {
          "attributes": {
            "NORMAL": 17,
            "POSITION": 16,
            "TEXCOORD_0": 18
          },
          "indices": 19,
          "material": 3,
          "mode": 4
        }
      ]
    },
    {
      "name": "Object_5",
      "primitives": [
        {
          "attributes": {
            "NORMAL": 21,
            "POSITION": 20,
            "TEXCOORD_0": 22
          },
          "indices": 23,
          "material": 4,
          "mode": 4
        }
      ]
    },
    {
      "name": "Object_6",
      "primitives": [
        {
          "attributes": {
            "NORMAL": 25,
            "POSITION": 24,
            "TEXCOORD_0": 26
          },
          "indices": 27,
          "material": 4,
          "mode": 4
        }
      ]
    }
  ],
  "nodes": [
    {
      "children": [
        1
      ],
      "matrix": [
        1.0,
        0.0,
        0.0,
        0.0,
        0.0,
        2.220446049250313e-16,
        -1.0,
        0.0,
        0.0,
        1.0,
        2.220446049250313e-16,
        0.0,
        0.0,
        0.0,
        0.0,
        1.0
      ],
      "name": "Sketchfab_model"
    },
    {
      "children": [
        2
      ],
      "name": "root"
    },
    {
      "children": [
        3,
        10,
        14
      ],
      "matrix": [
        1.0,
        0.0,
        0.0,
        0.0,
        0.0,
        2.220446049250313e-16,
        1.0,
        0.0,
        0.0,
        -1.0,
        2.220446049250313e-16,
        0.0,
        0.0,
        0.0,
        0.0,
        1.0
      ],
      "name": "GLTF_SceneRootNode"
    },
    {
      "children": [
        4,
        5,
        6,
        8
      ],
      "name": "Plane_5"
    },
    {
      "mesh": 0,
      "name": "Object_4"
    },
    {
      "mesh": 1,
      "name": "Object_5"
    },
    {
      "children": [
        7
      ],
      "matrix": [
        1.0,
        0.0,
        0.0,
        0.0,
        0.0,
        1.0,
        0.0,
        0.0,
        0.0,
        0.0,
        1.0,
        0.0,
        0.598792552947998,
        0.09524247795343399,
        -1.772089958190918,
        1.0
      ],
      "name": "Plane.001_3"
    },
    {
      "mesh": 2,
      "name": "Object_7"
    },
    {
      "children": [
        9
      ],
      "matrix": [
        1.0,
        0.0,
        0.0,
        0.0,
        -0.0,
        -1.0,
        0.0,
        -0.0,
        0.0,
        0.0,
        1.0,
        0.0,
        0.598792552947998,
        -0.0027975738048553467,
        -1.772089958190918,
        1.0
      ],
      "name": "Plane.002_4"
    },
    {
      "mesh": 3,
      "name": "Object_9"
    },
    {
      "children": [
        11,
        12
      ],
      "matrix": [
        0.04739976301789284,
        0.0,
        0.0,
        0.0,
        0.0,
        0.0,
        0.04739976301789284,
        0.0,
        0.0,
        -0.04739976301789284,
        0.0,
        0.0,
        0.0,
        0.0,
        0.0,
        1.0
      ],
      "name": "Cylinder_8"
    },
    {
      "mesh": 4,
      "name": "Object_11"
    },
    {
      "children": [
        13
      ],
      "matrix": [
        21.097152709960938,
        0.0,
        -0.0,
        0.0,
        0.0,
        0.0,
        -21.097152709960938,
        0.0,
        0.0,
        21.097152709960938,
        0.0,
        0.0,
        16.2218074798584,
        -34.15016555786133,
        -8.766794204711914,
        1.0
      ],
      "name": "NurbsPath.003_7"
    },
    {
      "mesh": 5,
      "name": "Object_13"
    },
    {
      "children": [
        15
      ],
      "matrix": [
        1.0,
        0.0,
        0.0,
        0.0,
        0.0,
        1.0,
        0.0,
        0.0,
        0.0,
        0.0,
        1.0,
        0.0,
        -0.6777811050415039,
        0.0,
        1.9614629745483398,
        1.0
      ],
      "name": "NurbsPath.002_12"
    },
    {
      "mesh": 6,
      "name": "Object_15"
    }
  ],
  "samplers": [
    {
      "magFilter": 9729,
      "minFilter": 9987,
      "wrapS": 10497,
      "wrapT": 10497
    }
  ],
  "scene": 0,
  "scenes": [
    {
      "name": "Sketchfab_Scene",
      "nodes": [
        0
      ]
    }
  ],
  "textures": [
    {
      "sampler": 0,
      "source": 0
    }
  ]
}
